# xmcd CD database file
# Copyright (C) 1997 Ti Kan
# 
# Track frame offsets:
#     150
#     6825
#     22032
#     38325
#     46622
#     67640
#     78700
#     90310
#     105515
#     120947
#     136962
#     150037
#     161972
#     176400
#     188545
#     200855
#     216360
#     230055
#     242767
#     253762
#     266110
#     281140
#     294475
#     306690
# 
# Disc length: 4259 seconds
# 
# Revision: 1
# Processed by: cddbd v1.4b41PL1 Copyright (c) Steve Scherf et al.
# Submitted via: DiscPlay 4.0.4
# 
DISCID=4910a118
DTITLE=Aretha Franklin - 1 heure avec (Yeah !!! In person with her quartet /
DTITLE=The first 12 sides)
DYEAR=1900
DGENRE=
TTITLE0=This Could Be The Start Of Something
TTITLE1=Once In A Lifetime
TTITLE2=Misty
TTITLE3=More
TTITLE4=There Is No Greater Love
TTITLE5=Muddy Water
TTITLE6=If I Had A Hammer
TTITLE7=Impossible
TTITLE8=Today I Love Ev'rybody
TTITLE9=Without The One You Love
TTITLE10=Trouble In Mind
TTITLE11=Love For Sale
TTITLE12=Won't Be Long
TTITLE13=Over The Rainbow
TTITLE14=Love Is The Only Thing
TTITLE15=Sweet Lover
TTITLE16=All Night Long
TTITLE17=Who Needs You ?
TTITLE18=Right Now
TTITLE19=Are You Sure
TTITLE20=Maybe I'm A Fool
TTITLE21=It Ain't Necessarily So
TTITLE22=(Blue) By Myself
TTITLE23=Today I Sing The Blues
EXTD=
EXTT0=
EXTT1=
EXTT2=
EXTT3=
EXTT4=
EXTT5=
EXTT6=
EXTT7=
EXTT8=
EXTT9=
EXTT10=
EXTT11=
EXTT12=
EXTT13=
EXTT14=
EXTT15=
EXTT16=
EXTT17=
EXTT18=
EXTT19=
EXTT20=
EXTT21=
EXTT22=
EXTT23=
PLAYORDER=
